<?xml version="1.0" encoding="UTF-8" standalone="no"?>
<!DOCTYPE svg PUBLIC "-//W3C//DTD SVG 1.1//EN"
 "http://www.w3.org/Graphics/SVG/1.1/DTD/svg11.dtd">
<!-- Generated by graphviz version 2.43.0 (0)
 -->
<!-- Title: G Pages: 1 -->
<svg width="512pt" height="67pt"
 viewBox="0.00 0.00 511.78 67.00" xmlns="http://www.w3.org/2000/svg" xmlns:xlink="http://www.w3.org/1999/xlink">
<g id="graph0" class="graph" transform="scale(1 1) rotate(0) translate(4 63)">
<title>G</title>
<polygon fill="white" stroke="transparent" points="-4,4 -4,-63 507.78,-63 507.78,4 -4,4"/>
<text text-anchor="middle" x="251.89" y="-7.8" font-family="Times,serif" font-size="14.00">ckc</text>
<!-- IR -->
<g id="node1" class="node">
<title>IR</title>
<ellipse fill="none" stroke="black" cx="456.33" cy="-41" rx="47.39" ry="18"/>
<text text-anchor="middle" x="456.33" y="-37.3" font-family="Times,serif" font-size="14.00">LLVM IR</text>
</g>
<!-- Input -->
<g id="node2" class="node">
<title>Input</title>
<ellipse fill="none" stroke="black" cx="29.25" cy="-41" rx="29.5" ry="18"/>
<text text-anchor="middle" x="29.25" y="-37.3" font-family="Times,serif" font-size="14.00">Input</text>
</g>
<!-- Tokens -->
<g id="node3" class="node">
<title>Tokens</title>
<ellipse fill="none" stroke="black" cx="162.89" cy="-41" rx="36.29" ry="18"/>
<text text-anchor="middle" x="162.89" y="-37.3" font-family="Times,serif" font-size="14.00">Tokens</text>
</g>
<!-- Input&#45;&gt;Tokens -->
<g id="edge1" class="edge">
<title>Input&#45;&gt;Tokens</title>
<path fill="none" stroke="black" d="M58.81,-41C75.61,-41 97.23,-41 116.32,-41"/>
<polygon fill="black" stroke="black" points="116.33,-44.5 126.33,-41 116.33,-37.5 116.33,-44.5"/>
<text text-anchor="middle" x="92.49" y="-44.8" font-family="Times,serif" font-size="14.00">Lexer</text>
</g>
<!-- AST -->
<g id="node4" class="node">
<title>AST</title>
<ellipse fill="none" stroke="black" cx="296.59" cy="-41" rx="27.1" ry="18"/>
<text text-anchor="middle" x="296.59" y="-37.3" font-family="Times,serif" font-size="14.00">AST</text>
</g>
<!-- Tokens&#45;&gt;AST -->
<g id="edge2" class="edge">
<title>Tokens&#45;&gt;AST</title>
<path fill="none" stroke="black" d="M199.53,-41C217.95,-41 240.41,-41 258.97,-41"/>
<polygon fill="black" stroke="black" points="259.11,-44.5 269.11,-41 259.11,-37.5 259.11,-44.5"/>
<text text-anchor="middle" x="234.29" y="-44.8" font-family="Times,serif" font-size="14.00">Parser</text>
</g>
<!-- AST&#45;&gt;IR -->
<g id="edge3" class="edge">
<title>AST&#45;&gt;IR</title>
<path fill="none" stroke="black" d="M323.99,-41C344.26,-41 373,-41 398.43,-41"/>
<polygon fill="black" stroke="black" points="398.72,-44.5 408.72,-41 398.72,-37.5 398.72,-44.5"/>
<text text-anchor="middle" x="366.38" y="-44.8" font-family="Times,serif" font-size="14.00">Codegen</text>
</g>
</g>
</svg>
