<?xml version="1.0" encoding="UTF-8" standalone="no"?>
<!DOCTYPE svg PUBLIC "-//W3C//DTD SVG 1.1//EN"
 "http://www.w3.org/Graphics/SVG/1.1/DTD/svg11.dtd">
<!-- Generated by graphviz version 2.43.0 (0)
 -->
<!-- Title: G Pages: 1 -->
<svg width="710pt" height="548pt"
 viewBox="0.00 0.00 710.00 548.00" xmlns="http://www.w3.org/2000/svg" xmlns:xlink="http://www.w3.org/1999/xlink">
<g id="graph0" class="graph" transform="scale(1 1) rotate(0) translate(4 544)">
<title>G</title>
<polygon fill="white" stroke="transparent" points="-4,4 -4,-544 706,-544 706,4 -4,4"/>
<!-- 58 -->
<g id="node1" class="node">
<title>58</title>
<ellipse fill="none" stroke="black" cx="27" cy="-378" rx="27" ry="18"/>
<text text-anchor="middle" x="27" y="-374.3" font-family="Times,serif" font-size="14.00">x</text>
</g>
<!-- 60 -->
<g id="node2" class="node">
<title>60</title>
<ellipse fill="none" stroke="black" cx="99" cy="-306" rx="27" ry="18"/>
<text text-anchor="middle" x="99" y="-302.3" font-family="Times,serif" font-size="14.00">y</text>
</g>
<!-- 65 -->
<g id="node3" class="node">
<title>65</title>
<ellipse fill="none" stroke="black" cx="27" cy="-18" rx="27" ry="18"/>
<text text-anchor="middle" x="27" y="-14.3" font-family="Times,serif" font-size="14.00">1</text>
</g>
<!-- 66 -->
<g id="node4" class="node">
<title>66</title>
<ellipse fill="none" stroke="black" cx="99" cy="-18" rx="27" ry="18"/>
<text text-anchor="middle" x="99" y="-14.3" font-family="Times,serif" font-size="14.00">2</text>
</g>
<!-- 64 -->
<g id="node5" class="node">
<title>64</title>
<ellipse fill="none" stroke="black" cx="63" cy="-90" rx="27" ry="18"/>
<text text-anchor="middle" x="63" y="-86.3" font-family="Times,serif" font-size="14.00">*</text>
</g>
<!-- 64&#45;&gt;65 -->
<g id="edge1" class="edge">
<title>64&#45;&gt;65</title>
<path fill="none" stroke="black" d="M54.65,-72.76C50.29,-64.28 44.85,-53.71 39.96,-44.2"/>
<polygon fill="black" stroke="black" points="42.99,-42.44 35.3,-35.15 36.77,-45.64 42.99,-42.44"/>
</g>
<!-- 64&#45;&gt;66 -->
<g id="edge2" class="edge">
<title>64&#45;&gt;66</title>
<path fill="none" stroke="black" d="M71.35,-72.76C75.71,-64.28 81.15,-53.71 86.04,-44.2"/>
<polygon fill="black" stroke="black" points="89.23,-45.64 90.7,-35.15 83.01,-42.44 89.23,-45.64"/>
</g>
<!-- 67 -->
<g id="node6" class="node">
<title>67</title>
<ellipse fill="none" stroke="black" cx="135" cy="-90" rx="27" ry="18"/>
<text text-anchor="middle" x="135" y="-86.3" font-family="Times,serif" font-size="14.00">3</text>
</g>
<!-- 63 -->
<g id="node7" class="node">
<title>63</title>
<ellipse fill="none" stroke="black" cx="99" cy="-162" rx="27" ry="18"/>
<text text-anchor="middle" x="99" y="-158.3" font-family="Times,serif" font-size="14.00">+</text>
</g>
<!-- 63&#45;&gt;64 -->
<g id="edge3" class="edge">
<title>63&#45;&gt;64</title>
<path fill="none" stroke="black" d="M90.65,-144.76C86.29,-136.28 80.85,-125.71 75.96,-116.2"/>
<polygon fill="black" stroke="black" points="78.99,-114.44 71.3,-107.15 72.77,-117.64 78.99,-114.44"/>
</g>
<!-- 63&#45;&gt;67 -->
<g id="edge4" class="edge">
<title>63&#45;&gt;67</title>
<path fill="none" stroke="black" d="M107.35,-144.76C111.71,-136.28 117.15,-125.71 122.04,-116.2"/>
<polygon fill="black" stroke="black" points="125.23,-117.64 126.7,-107.15 119.01,-114.44 125.23,-117.64"/>
</g>
<!-- 68 -->
<g id="node8" class="node">
<title>68</title>
<ellipse fill="none" stroke="black" cx="171" cy="-162" rx="27" ry="18"/>
<text text-anchor="middle" x="171" y="-158.3" font-family="Times,serif" font-size="14.00">4</text>
</g>
<!-- 62 -->
<g id="node9" class="node">
<title>62</title>
<ellipse fill="none" stroke="black" cx="135" cy="-234" rx="27" ry="18"/>
<text text-anchor="middle" x="135" y="-230.3" font-family="Times,serif" font-size="14.00">&lt;&lt;</text>
</g>
<!-- 62&#45;&gt;63 -->
<g id="edge5" class="edge">
<title>62&#45;&gt;63</title>
<path fill="none" stroke="black" d="M126.65,-216.76C122.29,-208.28 116.85,-197.71 111.96,-188.2"/>
<polygon fill="black" stroke="black" points="114.99,-186.44 107.3,-179.15 108.77,-189.64 114.99,-186.44"/>
</g>
<!-- 62&#45;&gt;68 -->
<g id="edge6" class="edge">
<title>62&#45;&gt;68</title>
<path fill="none" stroke="black" d="M143.35,-216.76C147.71,-208.28 153.15,-197.71 158.04,-188.2"/>
<polygon fill="black" stroke="black" points="161.23,-189.64 162.7,-179.15 155.01,-186.44 161.23,-189.64"/>
</g>
<!-- 69 -->
<g id="node10" class="node">
<title>69</title>
<ellipse fill="none" stroke="black" cx="207" cy="-234" rx="27" ry="18"/>
<text text-anchor="middle" x="207" y="-230.3" font-family="Times,serif" font-size="14.00">5</text>
</g>
<!-- 61 -->
<g id="node11" class="node">
<title>61</title>
<ellipse fill="none" stroke="black" cx="171" cy="-306" rx="27" ry="18"/>
<text text-anchor="middle" x="171" y="-302.3" font-family="Times,serif" font-size="14.00">&gt;&gt;</text>
</g>
<!-- 61&#45;&gt;62 -->
<g id="edge7" class="edge">
<title>61&#45;&gt;62</title>
<path fill="none" stroke="black" d="M162.65,-288.76C158.29,-280.28 152.85,-269.71 147.96,-260.2"/>
<polygon fill="black" stroke="black" points="150.99,-258.44 143.3,-251.15 144.77,-261.64 150.99,-258.44"/>
</g>
<!-- 61&#45;&gt;69 -->
<g id="edge8" class="edge">
<title>61&#45;&gt;69</title>
<path fill="none" stroke="black" d="M179.35,-288.76C183.71,-280.28 189.15,-269.71 194.04,-260.2"/>
<polygon fill="black" stroke="black" points="197.23,-261.64 198.7,-251.15 191.01,-258.44 197.23,-261.64"/>
</g>
<!-- 59 -->
<g id="node12" class="node">
<title>59</title>
<ellipse fill="none" stroke="black" cx="99" cy="-378" rx="27" ry="18"/>
<text text-anchor="middle" x="99" y="-374.3" font-family="Times,serif" font-size="14.00">=</text>
</g>
<!-- 59&#45;&gt;60 -->
<g id="edge9" class="edge">
<title>59&#45;&gt;60</title>
<path fill="none" stroke="black" d="M99,-359.7C99,-351.98 99,-342.71 99,-334.11"/>
<polygon fill="black" stroke="black" points="102.5,-334.1 99,-324.1 95.5,-334.1 102.5,-334.1"/>
</g>
<!-- 59&#45;&gt;61 -->
<g id="edge10" class="edge">
<title>59&#45;&gt;61</title>
<path fill="none" stroke="black" d="M113.57,-362.83C123.75,-352.94 137.52,-339.55 149.03,-328.36"/>
<polygon fill="black" stroke="black" points="151.47,-330.87 156.2,-321.38 146.59,-325.85 151.47,-330.87"/>
</g>
<!-- 57 -->
<g id="node13" class="node">
<title>57</title>
<ellipse fill="none" stroke="black" cx="99" cy="-450" rx="27" ry="18"/>
<text text-anchor="middle" x="99" y="-446.3" font-family="Times,serif" font-size="14.00">=</text>
</g>
<!-- 57&#45;&gt;58 -->
<g id="edge11" class="edge">
<title>57&#45;&gt;58</title>
<path fill="none" stroke="black" d="M84.43,-434.83C74.25,-424.94 60.48,-411.55 48.97,-400.36"/>
<polygon fill="black" stroke="black" points="51.41,-397.85 41.8,-393.38 46.53,-402.87 51.41,-397.85"/>
</g>
<!-- 57&#45;&gt;59 -->
<g id="edge12" class="edge">
<title>57&#45;&gt;59</title>
<path fill="none" stroke="black" d="M99,-431.7C99,-423.98 99,-414.71 99,-406.11"/>
<polygon fill="black" stroke="black" points="102.5,-406.1 99,-396.1 95.5,-406.1 102.5,-406.1"/>
</g>
<!-- 71 -->
<g id="node14" class="node">
<title>71</title>
<ellipse fill="none" stroke="black" cx="171" cy="-378" rx="27" ry="18"/>
<text text-anchor="middle" x="171" y="-374.3" font-family="Times,serif" font-size="14.00">f</text>
</g>
<!-- 72 -->
<g id="node15" class="node">
<title>72</title>
<ellipse fill="none" stroke="black" cx="243" cy="-378" rx="27" ry="18"/>
<text text-anchor="middle" x="243" y="-374.3" font-family="Times,serif" font-size="14.00">a</text>
</g>
<!-- 73 -->
<g id="node16" class="node">
<title>73</title>
<ellipse fill="none" stroke="black" cx="315" cy="-378" rx="27" ry="18"/>
<text text-anchor="middle" x="315" y="-374.3" font-family="Times,serif" font-size="14.00">b</text>
</g>
<!-- 74 -->
<g id="node17" class="node">
<title>74</title>
<ellipse fill="none" stroke="black" cx="387" cy="-378" rx="27" ry="18"/>
<text text-anchor="middle" x="387" y="-374.3" font-family="Times,serif" font-size="14.00">c</text>
</g>
<!-- 70 -->
<g id="node18" class="node">
<title>70</title>
<ellipse fill="none" stroke="black" cx="279" cy="-450" rx="27" ry="18"/>
<text text-anchor="middle" x="279" y="-446.3" font-family="Times,serif" font-size="14.00">()</text>
</g>
<!-- 70&#45;&gt;71 -->
<g id="edge13" class="edge">
<title>70&#45;&gt;71</title>
<path fill="none" stroke="black" d="M260.19,-436.81C243,-425.67 217.38,-409.06 198.01,-396.5"/>
<polygon fill="black" stroke="black" points="199.89,-393.56 189.6,-391.05 196.08,-399.43 199.89,-393.56"/>
</g>
<!-- 70&#45;&gt;72 -->
<g id="edge14" class="edge">
<title>70&#45;&gt;72</title>
<path fill="none" stroke="black" d="M270.65,-432.76C266.29,-424.28 260.85,-413.71 255.96,-404.2"/>
<polygon fill="black" stroke="black" points="258.99,-402.44 251.3,-395.15 252.77,-405.64 258.99,-402.44"/>
</g>
<!-- 70&#45;&gt;73 -->
<g id="edge15" class="edge">
<title>70&#45;&gt;73</title>
<path fill="none" stroke="black" d="M287.35,-432.76C291.71,-424.28 297.15,-413.71 302.04,-404.2"/>
<polygon fill="black" stroke="black" points="305.23,-405.64 306.7,-395.15 299.01,-402.44 305.23,-405.64"/>
</g>
<!-- 70&#45;&gt;74 -->
<g id="edge16" class="edge">
<title>70&#45;&gt;74</title>
<path fill="none" stroke="black" d="M297.81,-436.81C315,-425.67 340.62,-409.06 359.99,-396.5"/>
<polygon fill="black" stroke="black" points="361.92,-399.43 368.4,-391.05 358.11,-393.56 361.92,-399.43"/>
</g>
<!-- 78 -->
<g id="node19" class="node">
<title>78</title>
<ellipse fill="none" stroke="black" cx="315" cy="-234" rx="27" ry="18"/>
<text text-anchor="middle" x="315" y="-230.3" font-family="Times,serif" font-size="14.00">A</text>
</g>
<!-- 79 -->
<g id="node20" class="node">
<title>79</title>
<ellipse fill="none" stroke="black" cx="387" cy="-234" rx="27" ry="18"/>
<text text-anchor="middle" x="387" y="-230.3" font-family="Times,serif" font-size="14.00">B</text>
</g>
<!-- 77 -->
<g id="node21" class="node">
<title>77</title>
<ellipse fill="none" stroke="black" cx="387" cy="-306" rx="27" ry="18"/>
<text text-anchor="middle" x="387" y="-302.3" font-family="Times,serif" font-size="14.00">[]</text>
</g>
<!-- 77&#45;&gt;78 -->
<g id="edge17" class="edge">
<title>77&#45;&gt;78</title>
<path fill="none" stroke="black" d="M372.43,-290.83C362.25,-280.94 348.48,-267.55 336.97,-256.36"/>
<polygon fill="black" stroke="black" points="339.41,-253.85 329.8,-249.38 334.53,-258.87 339.41,-253.85"/>
</g>
<!-- 77&#45;&gt;79 -->
<g id="edge18" class="edge">
<title>77&#45;&gt;79</title>
<path fill="none" stroke="black" d="M387,-287.7C387,-279.98 387,-270.71 387,-262.11"/>
<polygon fill="black" stroke="black" points="390.5,-262.1 387,-252.1 383.5,-262.1 390.5,-262.1"/>
</g>
<!-- 81 -->
<g id="node22" class="node">
<title>81</title>
<ellipse fill="none" stroke="black" cx="459" cy="-234" rx="27" ry="18"/>
<text text-anchor="middle" x="459" y="-230.3" font-family="Times,serif" font-size="14.00">C</text>
</g>
<!-- 80 -->
<g id="node23" class="node">
<title>80</title>
<ellipse fill="none" stroke="black" cx="459" cy="-306" rx="27" ry="18"/>
<text text-anchor="middle" x="459" y="-302.3" font-family="Times,serif" font-size="14.00">&amp;</text>
</g>
<!-- 80&#45;&gt;81 -->
<g id="edge19" class="edge">
<title>80&#45;&gt;81</title>
<path fill="none" stroke="black" d="M459,-287.7C459,-279.98 459,-270.71 459,-262.11"/>
<polygon fill="black" stroke="black" points="462.5,-262.1 459,-252.1 455.5,-262.1 462.5,-262.1"/>
</g>
<!-- 76 -->
<g id="node24" class="node">
<title>76</title>
<ellipse fill="none" stroke="black" cx="459" cy="-378" rx="27" ry="18"/>
<text text-anchor="middle" x="459" y="-374.3" font-family="Times,serif" font-size="14.00">=</text>
</g>
<!-- 76&#45;&gt;77 -->
<g id="edge20" class="edge">
<title>76&#45;&gt;77</title>
<path fill="none" stroke="black" d="M444.43,-362.83C434.25,-352.94 420.48,-339.55 408.97,-328.36"/>
<polygon fill="black" stroke="black" points="411.41,-325.85 401.8,-321.38 406.53,-330.87 411.41,-325.85"/>
</g>
<!-- 76&#45;&gt;80 -->
<g id="edge21" class="edge">
<title>76&#45;&gt;80</title>
<path fill="none" stroke="black" d="M459,-359.7C459,-351.98 459,-342.71 459,-334.11"/>
<polygon fill="black" stroke="black" points="462.5,-334.1 459,-324.1 455.5,-334.1 462.5,-334.1"/>
</g>
<!-- 87 -->
<g id="node25" class="node">
<title>87</title>
<ellipse fill="none" stroke="black" cx="387" cy="-18" rx="27" ry="18"/>
<text text-anchor="middle" x="387" y="-14.3" font-family="Times,serif" font-size="14.00">A</text>
</g>
<!-- 88 -->
<g id="node26" class="node">
<title>88</title>
<ellipse fill="none" stroke="black" cx="459" cy="-18" rx="27" ry="18"/>
<text text-anchor="middle" x="459" y="-14.3" font-family="Times,serif" font-size="14.00">B</text>
</g>
<!-- 86 -->
<g id="node27" class="node">
<title>86</title>
<ellipse fill="none" stroke="black" cx="423" cy="-90" rx="27" ry="18"/>
<text text-anchor="middle" x="423" y="-86.3" font-family="Times,serif" font-size="14.00">[]</text>
</g>
<!-- 86&#45;&gt;87 -->
<g id="edge22" class="edge">
<title>86&#45;&gt;87</title>
<path fill="none" stroke="black" d="M414.65,-72.76C410.29,-64.28 404.85,-53.71 399.96,-44.2"/>
<polygon fill="black" stroke="black" points="402.99,-42.44 395.3,-35.15 396.77,-45.64 402.99,-42.44"/>
</g>
<!-- 86&#45;&gt;88 -->
<g id="edge23" class="edge">
<title>86&#45;&gt;88</title>
<path fill="none" stroke="black" d="M431.35,-72.76C435.71,-64.28 441.15,-53.71 446.04,-44.2"/>
<polygon fill="black" stroke="black" points="449.23,-45.64 450.7,-35.15 443.01,-42.44 449.23,-45.64"/>
</g>
<!-- 89 -->
<g id="node28" class="node">
<title>89</title>
<ellipse fill="none" stroke="black" cx="495" cy="-90" rx="27" ry="18"/>
<text text-anchor="middle" x="495" y="-86.3" font-family="Times,serif" font-size="14.00">C</text>
</g>
<!-- 90 -->
<g id="node29" class="node">
<title>90</title>
<ellipse fill="none" stroke="black" cx="567" cy="-90" rx="27" ry="18"/>
<text text-anchor="middle" x="567" y="-86.3" font-family="Times,serif" font-size="14.00">D</text>
</g>
<!-- 85 -->
<g id="node30" class="node">
<title>85</title>
<ellipse fill="none" stroke="black" cx="495" cy="-162" rx="27" ry="18"/>
<text text-anchor="middle" x="495" y="-158.3" font-family="Times,serif" font-size="14.00">[]</text>
</g>
<!-- 85&#45;&gt;86 -->
<g id="edge24" class="edge">
<title>85&#45;&gt;86</title>
<path fill="none" stroke="black" d="M480.43,-146.83C470.25,-136.94 456.48,-123.55 444.97,-112.36"/>
<polygon fill="black" stroke="black" points="447.41,-109.85 437.8,-105.38 442.53,-114.87 447.41,-109.85"/>
</g>
<!-- 85&#45;&gt;89 -->
<g id="edge25" class="edge">
<title>85&#45;&gt;89</title>
<path fill="none" stroke="black" d="M495,-143.7C495,-135.98 495,-126.71 495,-118.11"/>
<polygon fill="black" stroke="black" points="498.5,-118.1 495,-108.1 491.5,-118.1 498.5,-118.1"/>
</g>
<!-- 85&#45;&gt;90 -->
<g id="edge26" class="edge">
<title>85&#45;&gt;90</title>
<path fill="none" stroke="black" d="M509.57,-146.83C519.75,-136.94 533.52,-123.55 545.03,-112.36"/>
<polygon fill="black" stroke="black" points="547.47,-114.87 552.2,-105.38 542.59,-109.85 547.47,-114.87"/>
</g>
<!-- 91 -->
<g id="node31" class="node">
<title>91</title>
<ellipse fill="none" stroke="black" cx="567" cy="-162" rx="27" ry="18"/>
<text text-anchor="middle" x="567" y="-158.3" font-family="Times,serif" font-size="14.00">E</text>
</g>
<!-- 84 -->
<g id="node32" class="node">
<title>84</title>
<ellipse fill="none" stroke="black" cx="531" cy="-234" rx="27" ry="18"/>
<text text-anchor="middle" x="531" y="-230.3" font-family="Times,serif" font-size="14.00">[]</text>
</g>
<!-- 84&#45;&gt;85 -->
<g id="edge27" class="edge">
<title>84&#45;&gt;85</title>
<path fill="none" stroke="black" d="M522.65,-216.76C518.29,-208.28 512.85,-197.71 507.96,-188.2"/>
<polygon fill="black" stroke="black" points="510.99,-186.44 503.3,-179.15 504.77,-189.64 510.99,-186.44"/>
</g>
<!-- 84&#45;&gt;91 -->
<g id="edge28" class="edge">
<title>84&#45;&gt;91</title>
<path fill="none" stroke="black" d="M539.35,-216.76C543.71,-208.28 549.15,-197.71 554.04,-188.2"/>
<polygon fill="black" stroke="black" points="557.23,-189.64 558.7,-179.15 551.01,-186.44 557.23,-189.64"/>
</g>
<!-- 92 -->
<g id="node33" class="node">
<title>92</title>
<ellipse fill="none" stroke="black" cx="603" cy="-234" rx="27" ry="18"/>
<text text-anchor="middle" x="603" y="-230.3" font-family="Times,serif" font-size="14.00">F</text>
</g>
<!-- 93 -->
<g id="node34" class="node">
<title>93</title>
<ellipse fill="none" stroke="black" cx="675" cy="-234" rx="27" ry="18"/>
<text text-anchor="middle" x="675" y="-230.3" font-family="Times,serif" font-size="14.00">G</text>
</g>
<!-- 83 -->
<g id="node35" class="node">
<title>83</title>
<ellipse fill="none" stroke="black" cx="556" cy="-306" rx="27" ry="18"/>
<text text-anchor="middle" x="556" y="-302.3" font-family="Times,serif" font-size="14.00">()</text>
</g>
<!-- 83&#45;&gt;84 -->
<g id="edge29" class="edge">
<title>83&#45;&gt;84</title>
<path fill="none" stroke="black" d="M550.08,-288.41C547.22,-280.42 543.73,-270.64 540.52,-261.64"/>
<polygon fill="black" stroke="black" points="543.72,-260.2 537.06,-251.96 537.12,-262.55 543.72,-260.2"/>
</g>
<!-- 83&#45;&gt;92 -->
<g id="edge30" class="edge">
<title>83&#45;&gt;92</title>
<path fill="none" stroke="black" d="M566.67,-289.12C572.55,-280.34 579.99,-269.26 586.61,-259.42"/>
<polygon fill="black" stroke="black" points="589.71,-261.07 592.38,-250.82 583.9,-257.17 589.71,-261.07"/>
</g>
<!-- 83&#45;&gt;93 -->
<g id="edge31" class="edge">
<title>83&#45;&gt;93</title>
<path fill="none" stroke="black" d="M575.65,-293.44C594.94,-282.09 624.58,-264.66 646.47,-251.78"/>
<polygon fill="black" stroke="black" points="648.48,-254.66 655.32,-246.58 644.93,-248.63 648.48,-254.66"/>
</g>
<!-- 82 -->
<g id="node36" class="node">
<title>82</title>
<ellipse fill="none" stroke="black" cx="548" cy="-378" rx="44.39" ry="18"/>
<text text-anchor="middle" x="548" y="-374.3" font-family="Times,serif" font-size="14.00">++ (post)</text>
</g>
<!-- 82&#45;&gt;83 -->
<g id="edge32" class="edge">
<title>82&#45;&gt;83</title>
<path fill="none" stroke="black" d="M549.98,-359.7C550.86,-351.98 551.92,-342.71 552.9,-334.11"/>
<polygon fill="black" stroke="black" points="556.39,-334.44 554.05,-324.1 549.43,-333.64 556.39,-334.44"/>
</g>
<!-- 95 -->
<g id="node37" class="node">
<title>95</title>
<ellipse fill="none" stroke="black" cx="637" cy="-306" rx="27" ry="18"/>
<text text-anchor="middle" x="637" y="-302.3" font-family="Times,serif" font-size="14.00">{}</text>
</g>
<!-- 94 -->
<g id="node38" class="node">
<title>94</title>
<ellipse fill="none" stroke="black" cx="637" cy="-378" rx="27" ry="18"/>
<text text-anchor="middle" x="637" y="-374.3" font-family="Times,serif" font-size="14.00">{}</text>
</g>
<!-- 94&#45;&gt;95 -->
<g id="edge33" class="edge">
<title>94&#45;&gt;95</title>
<path fill="none" stroke="black" d="M637,-359.7C637,-351.98 637,-342.71 637,-334.11"/>
<polygon fill="black" stroke="black" points="640.5,-334.1 637,-324.1 633.5,-334.1 640.5,-334.1"/>
</g>
<!-- 75 -->
<g id="node39" class="node">
<title>75</title>
<ellipse fill="none" stroke="black" cx="503" cy="-450" rx="27" ry="18"/>
<text text-anchor="middle" x="503" y="-446.3" font-family="Times,serif" font-size="14.00">{}</text>
</g>
<!-- 75&#45;&gt;76 -->
<g id="edge34" class="edge">
<title>75&#45;&gt;76</title>
<path fill="none" stroke="black" d="M493.02,-433.12C487.5,-424.34 480.54,-413.26 474.35,-403.42"/>
<polygon fill="black" stroke="black" points="477.23,-401.42 468.94,-394.82 471.3,-405.15 477.23,-401.42"/>
</g>
<!-- 75&#45;&gt;82 -->
<g id="edge35" class="edge">
<title>75&#45;&gt;82</title>
<path fill="none" stroke="black" d="M513.21,-433.12C518.69,-424.59 525.57,-413.89 531.77,-404.25"/>
<polygon fill="black" stroke="black" points="534.74,-406.1 537.2,-395.8 528.85,-402.32 534.74,-406.1"/>
</g>
<!-- 75&#45;&gt;94 -->
<g id="edge36" class="edge">
<title>75&#45;&gt;94</title>
<path fill="none" stroke="black" d="M523.64,-438.22C545.91,-426.59 581.57,-407.96 606.94,-394.7"/>
<polygon fill="black" stroke="black" points="608.87,-397.64 616.11,-389.91 605.63,-391.44 608.87,-397.64"/>
</g>
<!-- 56 -->
<g id="node40" class="node">
<title>56</title>
<ellipse fill="none" stroke="black" cx="279" cy="-522" rx="27" ry="18"/>
<text text-anchor="middle" x="279" y="-518.3" font-family="Times,serif" font-size="14.00">{}</text>
</g>
<!-- 56&#45;&gt;57 -->
<g id="edge37" class="edge">
<title>56&#45;&gt;57</title>
<path fill="none" stroke="black" d="M256.2,-512.13C224.64,-499.86 167.46,-477.62 131.45,-463.62"/>
<polygon fill="black" stroke="black" points="132.48,-460.27 121.9,-459.9 129.95,-466.79 132.48,-460.27"/>
</g>
<!-- 56&#45;&gt;70 -->
<g id="edge38" class="edge">
<title>56&#45;&gt;70</title>
<path fill="none" stroke="black" d="M279,-503.7C279,-495.98 279,-486.71 279,-478.11"/>
<polygon fill="black" stroke="black" points="282.5,-478.1 279,-468.1 275.5,-478.1 282.5,-478.1"/>
</g>
<!-- 56&#45;&gt;75 -->
<g id="edge39" class="edge">
<title>56&#45;&gt;75</title>
<path fill="none" stroke="black" d="M302.97,-513.51C342.95,-501.02 423.35,-475.89 469.11,-461.59"/>
<polygon fill="black" stroke="black" points="470.36,-464.87 478.86,-458.54 468.27,-458.19 470.36,-464.87"/>
</g>
</g>
</svg>
