<?xml version="1.0" encoding="UTF-8" standalone="no"?>
<!DOCTYPE svg PUBLIC "-//W3C//DTD SVG 1.1//EN"
 "http://www.w3.org/Graphics/SVG/1.1/DTD/svg11.dtd">
<!-- Generated by graphviz version 2.43.0 (0)
 -->
<!-- Title: G Pages: 1 -->
<svg width="278pt" height="188pt"
 viewBox="0.00 0.00 278.00 188.00" xmlns="http://www.w3.org/2000/svg" xmlns:xlink="http://www.w3.org/1999/xlink">
<g id="graph0" class="graph" transform="scale(1 1) rotate(0) translate(4 184)">
<title>G</title>
<polygon fill="white" stroke="transparent" points="-4,4 -4,-184 274,-184 274,4 -4,4"/>
<!-- 13 -->
<g id="node1" class="node">
<title>13</title>
<ellipse fill="none" stroke="black" cx="27" cy="-90" rx="27" ry="18"/>
<text text-anchor="middle" x="27" y="-86.3" font-family="Times,serif" font-size="14.00">xyz</text>
</g>
<!-- 14 -->
<g id="node2" class="node">
<title>14</title>
<ellipse fill="none" stroke="black" cx="99" cy="-90" rx="27" ry="18"/>
<text text-anchor="middle" x="99" y="-86.3" font-family="Times,serif" font-size="14.00">123</text>
</g>
<!-- 16 -->
<g id="node3" class="node">
<title>16</title>
<ellipse fill="none" stroke="black" cx="135" cy="-18" rx="27" ry="18"/>
<text text-anchor="middle" x="135" y="-14.3" font-family="Times,serif" font-size="14.00">a</text>
</g>
<!-- 17 -->
<g id="node4" class="node">
<title>17</title>
<ellipse fill="none" stroke="black" cx="207" cy="-18" rx="27" ry="18"/>
<text text-anchor="middle" x="207" y="-14.3" font-family="Times,serif" font-size="14.00">b</text>
</g>
<!-- 15 -->
<g id="node5" class="node">
<title>15</title>
<ellipse fill="none" stroke="black" cx="171" cy="-90" rx="27" ry="18"/>
<text text-anchor="middle" x="171" y="-86.3" font-family="Times,serif" font-size="14.00">{}</text>
</g>
<!-- 15&#45;&gt;16 -->
<g id="edge1" class="edge">
<title>15&#45;&gt;16</title>
<path fill="none" stroke="black" d="M162.65,-72.76C158.29,-64.28 152.85,-53.71 147.96,-44.2"/>
<polygon fill="black" stroke="black" points="150.99,-42.44 143.3,-35.15 144.77,-45.64 150.99,-42.44"/>
</g>
<!-- 15&#45;&gt;17 -->
<g id="edge2" class="edge">
<title>15&#45;&gt;17</title>
<path fill="none" stroke="black" d="M179.35,-72.76C183.71,-64.28 189.15,-53.71 194.04,-44.2"/>
<polygon fill="black" stroke="black" points="197.23,-45.64 198.7,-35.15 191.01,-42.44 197.23,-45.64"/>
</g>
<!-- 18 -->
<g id="node6" class="node">
<title>18</title>
<ellipse fill="none" stroke="black" cx="243" cy="-90" rx="27" ry="18"/>
<text text-anchor="middle" x="243" y="-86.3" font-family="Times,serif" font-size="14.00">c</text>
</g>
<!-- 12 -->
<g id="node7" class="node">
<title>12</title>
<ellipse fill="none" stroke="black" cx="135" cy="-162" rx="27" ry="18"/>
<text text-anchor="middle" x="135" y="-158.3" font-family="Times,serif" font-size="14.00">{}</text>
</g>
<!-- 12&#45;&gt;13 -->
<g id="edge3" class="edge">
<title>12&#45;&gt;13</title>
<path fill="none" stroke="black" d="M116.19,-148.81C99,-137.67 73.38,-121.06 54.01,-108.5"/>
<polygon fill="black" stroke="black" points="55.89,-105.56 45.6,-103.05 52.08,-111.43 55.89,-105.56"/>
</g>
<!-- 12&#45;&gt;14 -->
<g id="edge4" class="edge">
<title>12&#45;&gt;14</title>
<path fill="none" stroke="black" d="M126.65,-144.76C122.29,-136.28 116.85,-125.71 111.96,-116.2"/>
<polygon fill="black" stroke="black" points="114.99,-114.44 107.3,-107.15 108.77,-117.64 114.99,-114.44"/>
</g>
<!-- 12&#45;&gt;15 -->
<g id="edge5" class="edge">
<title>12&#45;&gt;15</title>
<path fill="none" stroke="black" d="M143.35,-144.76C147.71,-136.28 153.15,-125.71 158.04,-116.2"/>
<polygon fill="black" stroke="black" points="161.23,-117.64 162.7,-107.15 155.01,-114.44 161.23,-117.64"/>
</g>
<!-- 12&#45;&gt;18 -->
<g id="edge6" class="edge">
<title>12&#45;&gt;18</title>
<path fill="none" stroke="black" d="M153.81,-148.81C171,-137.67 196.62,-121.06 215.99,-108.5"/>
<polygon fill="black" stroke="black" points="217.92,-111.43 224.4,-103.05 214.11,-105.56 217.92,-111.43"/>
</g>
</g>
</svg>
