<?xml version="1.0" encoding="UTF-8" standalone="no"?>
<!DOCTYPE svg PUBLIC "-//W3C//DTD SVG 1.1//EN"
 "http://www.w3.org/Graphics/SVG/1.1/DTD/svg11.dtd">
<!-- Generated by graphviz version 2.43.0 (0)
 -->
<!-- Title: G Pages: 1 -->
<svg width="400pt" height="266pt"
 viewBox="0.00 0.00 400.10 266.00" xmlns="http://www.w3.org/2000/svg" xmlns:xlink="http://www.w3.org/1999/xlink">
<g id="graph0" class="graph" transform="scale(1 1) rotate(0) translate(4 262)">
<title>G</title>
<polygon fill="white" stroke="transparent" points="-4,4 -4,-262 396.1,-262 396.1,4 -4,4"/>
<text text-anchor="start" x="136.05" y="-8.8" font-family="Times,serif" font-size="14.00">Kata Compiler (</text>
<text text-anchor="start" x="226.05" y="-8.8" font-family="monospace" font-size="14.00">ckc</text>
<text text-anchor="start" x="251.05" y="-8.8" font-family="Times,serif" font-size="14.00">)</text>
<g id="clust1" class="cluster">
<title>cluster_0</title>
<polygon fill="none" stroke="black" points="80.1,-31 80.1,-250 184.1,-250 184.1,-31 80.1,-31"/>
<text text-anchor="middle" x="132.1" y="-234.8" font-family="Times,serif" font-size="14.00">Front End</text>
</g>
<g id="clust2" class="cluster">
<title>cluster_1</title>
<polygon fill="none" stroke="black" points="192.1,-175 192.1,-250 296.1,-250 296.1,-175 192.1,-175"/>
<text text-anchor="middle" x="244.1" y="-234.8" font-family="Times,serif" font-size="14.00">Back End</text>
</g>
<g id="clust3" class="cluster">
<title>cluster_2</title>
<polygon fill="none" stroke="black" points="304.1,-175 304.1,-250 384.1,-250 384.1,-175 304.1,-175"/>
<text text-anchor="middle" x="344.1" y="-234.8" font-family="Times,serif" font-size="14.00">VM</text>
</g>
<!-- Source -->
<g id="node1" class="node">
<title>Source</title>
<ellipse fill="none" stroke="black" cx="35.1" cy="-201" rx="35.19" ry="18"/>
<text text-anchor="middle" x="35.1" y="-197.3" font-family="Times,serif" font-size="14.00">Source</text>
</g>
<!-- Tokenize -->
<g id="node2" class="node">
<title>Tokenize</title>
<ellipse fill="none" stroke="black" cx="132.1" cy="-201" rx="43.59" ry="18"/>
<text text-anchor="middle" x="132.1" y="-197.3" font-family="Times,serif" font-size="14.00">Tokenize</text>
</g>
<!-- Source&#45;&gt;Tokenize -->
<g id="edge1" class="edge">
<title>Source&#45;&gt;Tokenize</title>
<path fill="none" stroke="black" d="M70.34,-201C72.94,-201 75.54,-201 78.15,-201"/>
<polygon fill="black" stroke="black" points="78.19,-204.5 88.19,-201 78.19,-197.5 78.19,-204.5"/>
</g>
<!-- Parse -->
<g id="node3" class="node">
<title>Parse</title>
<ellipse fill="none" stroke="black" cx="132.1" cy="-129" rx="29.8" ry="18"/>
<text text-anchor="middle" x="132.1" y="-125.3" font-family="Times,serif" font-size="14.00">Parse</text>
</g>
<!-- Tokenize&#45;&gt;Parse -->
<g id="edge2" class="edge">
<title>Tokenize&#45;&gt;Parse</title>
<path fill="none" stroke="black" d="M132.1,-182.7C132.1,-174.98 132.1,-165.71 132.1,-157.11"/>
<polygon fill="black" stroke="black" points="135.6,-157.1 132.1,-147.1 128.6,-157.1 135.6,-157.1"/>
</g>
<!-- AST -->
<g id="node4" class="node">
<title>AST</title>
<ellipse fill="none" stroke="black" cx="132.1" cy="-57" rx="27.1" ry="18"/>
<text text-anchor="middle" x="132.1" y="-53.3" font-family="Times,serif" font-size="14.00">AST</text>
</g>
<!-- Parse&#45;&gt;AST -->
<g id="edge3" class="edge">
<title>Parse&#45;&gt;AST</title>
<path fill="none" stroke="black" d="M132.1,-110.7C132.1,-102.98 132.1,-93.71 132.1,-85.11"/>
<polygon fill="black" stroke="black" points="135.6,-85.1 132.1,-75.1 128.6,-85.1 135.6,-85.1"/>
</g>
<!-- Bytecode -->
<g id="node5" class="node">
<title>Bytecode</title>
<ellipse fill="none" stroke="black" cx="244.1" cy="-201" rx="44.39" ry="18"/>
<text text-anchor="middle" x="244.1" y="-197.3" font-family="Times,serif" font-size="14.00">Bytecode</text>
</g>
<!-- AST&#45;&gt;Bytecode -->
<g id="edge4" class="edge">
<title>AST&#45;&gt;Bytecode</title>
<path fill="none" stroke="black" d="M144.12,-73.24C161.68,-95.51 194.8,-137.5 218.09,-167.03"/>
<polygon fill="black" stroke="black" points="215.44,-169.32 224.38,-175 220.94,-164.98 215.44,-169.32"/>
</g>
<!-- eval.c -->
<g id="node6" class="node">
<title>eval.c</title>
<ellipse fill="none" stroke="black" cx="344.1" cy="-201" rx="31.7" ry="18"/>
<text text-anchor="middle" x="344.1" y="-197.3" font-family="Times,serif" font-size="14.00">eval.c</text>
</g>
<!-- Bytecode&#45;&gt;eval.c -->
<g id="edge5" class="edge">
<title>Bytecode&#45;&gt;eval.c</title>
<path fill="none" stroke="black" d="M288.63,-201C293.02,-201 297.4,-201 301.79,-201"/>
<polygon fill="black" stroke="black" points="302.03,-204.5 312.03,-201 302.03,-197.5 302.03,-204.5"/>
</g>
</g>
</svg>
