<?xml version="1.0" encoding="UTF-8" standalone="no"?>
<!DOCTYPE svg PUBLIC "-//W3C//DTD SVG 1.1//EN"
 "http://www.w3.org/Graphics/SVG/1.1/DTD/svg11.dtd">
<!-- Generated by graphviz version 2.43.0 (0)
 -->
<!-- Title: G Pages: 1 -->
<svg width="350pt" height="283pt"
 viewBox="0.00 0.00 350.00 283.00" xmlns="http://www.w3.org/2000/svg" xmlns:xlink="http://www.w3.org/1999/xlink">
<g id="graph0" class="graph" transform="scale(1 1) rotate(0) translate(4 279)">
<title>G</title>
<polygon fill="white" stroke="transparent" points="-4,4 -4,-279 346,-279 346,4 -4,4"/>
<text text-anchor="start" x="39" y="-8.8" font-family="Times,serif" font-size="14.00">AST for </text>
<text text-anchor="start" x="88" y="-8.8" font-family="monospace" font-size="14.00">&#39;x * (1 + y) + f(x, y, 2)&#39;</text>
<!-- 0 -->
<g id="node1" class="node">
<title>0</title>
<ellipse fill="none" stroke="black" cx="135" cy="-257" rx="27" ry="18"/>
<text text-anchor="middle" x="135" y="-253.3" font-family="Times,serif" font-size="14.00">+</text>
</g>
<!-- 1 -->
<g id="node2" class="node">
<title>1</title>
<ellipse fill="none" stroke="black" cx="99" cy="-185" rx="27" ry="18"/>
<text text-anchor="middle" x="99" y="-181.3" font-family="Times,serif" font-size="14.00">*</text>
</g>
<!-- 0&#45;&gt;1 -->
<g id="edge1" class="edge">
<title>0&#45;&gt;1</title>
<path fill="none" stroke="black" d="M126.65,-239.76C122.29,-231.28 116.85,-220.71 111.96,-211.2"/>
<polygon fill="black" stroke="black" points="114.99,-209.44 107.3,-202.15 108.77,-212.64 114.99,-209.44"/>
</g>
<!-- 2 -->
<g id="node3" class="node">
<title>2</title>
<ellipse fill="none" stroke="black" cx="207" cy="-185" rx="27" ry="18"/>
<text text-anchor="middle" x="207" y="-181.3" font-family="Times,serif" font-size="14.00">f</text>
</g>
<!-- 0&#45;&gt;2 -->
<g id="edge2" class="edge">
<title>0&#45;&gt;2</title>
<path fill="none" stroke="black" d="M149.57,-241.83C159.75,-231.94 173.52,-218.55 185.03,-207.36"/>
<polygon fill="black" stroke="black" points="187.47,-209.87 192.2,-200.38 182.59,-204.85 187.47,-209.87"/>
</g>
<!-- 3 -->
<g id="node4" class="node">
<title>3</title>
<ellipse fill="none" stroke="black" cx="27" cy="-113" rx="27" ry="18"/>
<text text-anchor="middle" x="27" y="-109.3" font-family="Times,serif" font-size="14.00">x</text>
</g>
<!-- 1&#45;&gt;3 -->
<g id="edge3" class="edge">
<title>1&#45;&gt;3</title>
<path fill="none" stroke="black" d="M84.43,-169.83C74.25,-159.94 60.48,-146.55 48.97,-135.36"/>
<polygon fill="black" stroke="black" points="51.41,-132.85 41.8,-128.38 46.53,-137.87 51.41,-132.85"/>
</g>
<!-- 4 -->
<g id="node5" class="node">
<title>4</title>
<ellipse fill="none" stroke="black" cx="99" cy="-113" rx="27" ry="18"/>
<text text-anchor="middle" x="99" y="-109.3" font-family="Times,serif" font-size="14.00">+</text>
</g>
<!-- 1&#45;&gt;4 -->
<g id="edge4" class="edge">
<title>1&#45;&gt;4</title>
<path fill="none" stroke="black" d="M99,-166.7C99,-158.98 99,-149.71 99,-141.11"/>
<polygon fill="black" stroke="black" points="102.5,-141.1 99,-131.1 95.5,-141.1 102.5,-141.1"/>
</g>
<!-- 7 -->
<g id="node8" class="node">
<title>7</title>
<ellipse fill="none" stroke="black" cx="171" cy="-113" rx="27" ry="18"/>
<text text-anchor="middle" x="171" y="-109.3" font-family="Times,serif" font-size="14.00">x</text>
</g>
<!-- 2&#45;&gt;7 -->
<g id="edge7" class="edge">
<title>2&#45;&gt;7</title>
<path fill="none" stroke="black" d="M198.65,-167.76C194.29,-159.28 188.85,-148.71 183.96,-139.2"/>
<polygon fill="black" stroke="black" points="186.99,-137.44 179.3,-130.15 180.77,-140.64 186.99,-137.44"/>
</g>
<!-- 8 -->
<g id="node9" class="node">
<title>8</title>
<ellipse fill="none" stroke="black" cx="243" cy="-113" rx="27" ry="18"/>
<text text-anchor="middle" x="243" y="-109.3" font-family="Times,serif" font-size="14.00">y</text>
</g>
<!-- 2&#45;&gt;8 -->
<g id="edge8" class="edge">
<title>2&#45;&gt;8</title>
<path fill="none" stroke="black" d="M215.35,-167.76C219.71,-159.28 225.15,-148.71 230.04,-139.2"/>
<polygon fill="black" stroke="black" points="233.23,-140.64 234.7,-130.15 227.01,-137.44 233.23,-140.64"/>
</g>
<!-- 9 -->
<g id="node10" class="node">
<title>9</title>
<ellipse fill="none" stroke="black" cx="315" cy="-113" rx="27" ry="18"/>
<text text-anchor="middle" x="315" y="-109.3" font-family="Times,serif" font-size="14.00">2</text>
</g>
<!-- 2&#45;&gt;9 -->
<g id="edge9" class="edge">
<title>2&#45;&gt;9</title>
<path fill="none" stroke="black" d="M225.81,-171.81C243,-160.67 268.62,-144.06 287.99,-131.5"/>
<polygon fill="black" stroke="black" points="289.92,-134.43 296.4,-126.05 286.11,-128.56 289.92,-134.43"/>
</g>
<!-- 5 -->
<g id="node6" class="node">
<title>5</title>
<ellipse fill="none" stroke="black" cx="63" cy="-41" rx="27" ry="18"/>
<text text-anchor="middle" x="63" y="-37.3" font-family="Times,serif" font-size="14.00">1</text>
</g>
<!-- 4&#45;&gt;5 -->
<g id="edge5" class="edge">
<title>4&#45;&gt;5</title>
<path fill="none" stroke="black" d="M90.65,-95.76C86.29,-87.28 80.85,-76.71 75.96,-67.2"/>
<polygon fill="black" stroke="black" points="78.99,-65.44 71.3,-58.15 72.77,-68.64 78.99,-65.44"/>
</g>
<!-- 6 -->
<g id="node7" class="node">
<title>6</title>
<ellipse fill="none" stroke="black" cx="135" cy="-41" rx="27" ry="18"/>
<text text-anchor="middle" x="135" y="-37.3" font-family="Times,serif" font-size="14.00">y</text>
</g>
<!-- 4&#45;&gt;6 -->
<g id="edge6" class="edge">
<title>4&#45;&gt;6</title>
<path fill="none" stroke="black" d="M107.35,-95.76C111.71,-87.28 117.15,-76.71 122.04,-67.2"/>
<polygon fill="black" stroke="black" points="125.23,-68.64 126.7,-58.15 119.01,-65.44 125.23,-68.64"/>
</g>
</g>
</svg>
